<svg id="Layer_1" data-name="Layer 1" xmlns="http://www.w3.org/2000/svg" viewBox="0 0 795.93 207.4"><defs><style>.cls-1{fill:#009fe3;}.cls-2{fill:#0e2e69;}</style></defs><title>FFS-Logo-final-color</title><path class="cls-1" d="M538,426.26c-.55-.23-1.56-.57-3.08-1a13,13,0,0,1-3.06-1.26,3.89,3.89,0,0,1-1.37-1.28,3.55,3.55,0,0,1-.38-1.75,3.26,3.26,0,0,1,.95-2.42,3.22,3.22,0,0,1,2.41-1,3.58,3.58,0,0,1,2.61.88,3.81,3.81,0,0,1,1,2.65l.08,1.2h6.89L544,421a10.38,10.38,0,0,0-3-7.3,10.19,10.19,0,0,0-7.35-2.66,10.35,10.35,0,0,0-7.42,2.95,9.7,9.7,0,0,0-3.09,7.23,9.27,9.27,0,0,0,1.91,6.07c1.24,1.5,3.67,2.88,7.44,4.22a10.23,10.23,0,0,1,4,2.25,4,4,0,0,1,.92,2.8,3.69,3.69,0,0,1-1.18,2.85,4.32,4.32,0,0,1-3.1,1.15A4.1,4.1,0,0,1,530,439a6,6,0,0,1-1.38-4.19v-1.28h-6.78l0,1.32a13,13,0,0,0,3.19,8.72,10.64,10.64,0,0,0,8.12,3.34,11.44,11.44,0,0,0,8.12-3,10.19,10.19,0,0,0,3.25-7.71,10.84,10.84,0,0,0-1.61-6.08A11,11,0,0,0,538,426.26Z" transform="translate(-239.9 -248.94)"/><polygon class="cls-1" points="330.25 162.86 320.88 186.36 311.93 162.86 304.51 162.86 317.23 195.78 312.46 207.4 319.58 207.4 337.75 162.86 330.25 162.86"/><path class="cls-1" d="M592.9,426.26c-.55-.23-1.56-.57-3.08-1a13,13,0,0,1-3.06-1.26,3.89,3.89,0,0,1-1.37-1.28A3.55,3.55,0,0,1,585,421a3.26,3.26,0,0,1,1-2.42,3.22,3.22,0,0,1,2.41-1,3.58,3.58,0,0,1,2.61.88,3.81,3.81,0,0,1,1,2.65l.08,1.2H599l-.06-1.33a10.38,10.38,0,0,0-2.95-7.3,10.19,10.19,0,0,0-7.35-2.66,10.35,10.35,0,0,0-7.42,2.95,9.7,9.7,0,0,0-3.09,7.23,9.32,9.32,0,0,0,1.91,6.07c1.24,1.5,3.67,2.88,7.44,4.22a10.23,10.23,0,0,1,4,2.25,4,4,0,0,1,.92,2.8,3.69,3.69,0,0,1-1.18,2.85,4.31,4.31,0,0,1-3.1,1.15,4.1,4.1,0,0,1-3.25-1.51,6,6,0,0,1-1.38-4.19v-1.28h-6.78l0,1.32a12.93,12.93,0,0,0,3.2,8.72,10.6,10.6,0,0,0,8.11,3.34,11.44,11.44,0,0,0,8.12-3,10.19,10.19,0,0,0,3.25-7.71,10.84,10.84,0,0,0-1.61-6.08A11,11,0,0,0,592.9,426.26Z" transform="translate(-239.9 -248.94)"/><polygon class="cls-1" points="373.62 152.59 367 152.59 367 162.86 360.97 162.86 360.97 169.51 367 169.51 367 197.13 373.62 197.13 373.62 169.51 379.65 169.51 379.65 162.86 373.62 162.86 373.62 152.59"/><path class="cls-1" d="M638.82,410.94a17.39,17.39,0,0,0-18,18A17.73,17.73,0,0,0,626,441.65,17,17,0,0,0,638.65,447a16.73,16.73,0,0,0,9.92-3.05,19.55,19.55,0,0,0,6.6-8.63l.73-1.78h-7.34l-.35.74a10.73,10.73,0,0,1-4,4.62,10.35,10.35,0,0,1-5.73,1.65,10.46,10.46,0,0,1-7.54-2.84,10.61,10.61,0,0,1-3.19-6.16h28.47v-1.58c0-5.56-1.63-10.16-4.84-13.66A16.38,16.38,0,0,0,638.82,410.94Zm-.61,6.39a10.52,10.52,0,0,1,7.21,2.37,11.91,11.91,0,0,1,3.42,5.71H628a10.61,10.61,0,0,1,3.23-5.53A9.94,9.94,0,0,1,638.21,417.33Z" transform="translate(-239.9 -248.94)"/><path class="cls-1" d="M698.15,411.17a15.46,15.46,0,0,0-7,1.56,13.71,13.71,0,0,0-4.18,3.2,12.87,12.87,0,0,0-4-3.11,15.54,15.54,0,0,0-7.15-1.65,15.24,15.24,0,0,0-6.09,1.17,12.56,12.56,0,0,0-2.49,1.43v-2h-6.57v34.28h6.57V429.37a36,36,0,0,1,.28-5.55,7.79,7.79,0,0,1,.9-2.54,6.84,6.84,0,0,1,2.79-2.7,9,9,0,0,1,4.26-1c2.69,0,4.6.71,5.83,2.16s1.92,3.93,1.92,7.26v19h6.39V429.37a34,34,0,0,1,.3-5.54,8.51,8.51,0,0,1,.88-2.55,7,7,0,0,1,2.77-2.7,8.65,8.65,0,0,1,4.17-1c2.74,0,4.63.71,5.76,2.17s1.81,4.29,1.81,8.17v18.12h6.45V428.8c0-6.07-1-10.4-3.2-13.25S702.86,411.17,698.15,411.17Z" transform="translate(-239.9 -248.94)"/><path class="cls-1" d="M737.15,430.1a11,11,0,0,0-4.94-3.84c-.56-.23-1.57-.57-3.08-1a12.77,12.77,0,0,1-3.06-1.26,3.72,3.72,0,0,1-1.37-1.28,3.44,3.44,0,0,1-.39-1.75,3.27,3.27,0,0,1,1-2.42,3.22,3.22,0,0,1,2.41-1,3.58,3.58,0,0,1,2.61.88,3.91,3.91,0,0,1,1,2.65l.07,1.2h6.89l0-1.33a10.38,10.38,0,0,0-3-7.3,10.17,10.17,0,0,0-7.34-2.66,10.34,10.34,0,0,0-7.42,2.95,9.7,9.7,0,0,0-3.09,7.23,9.27,9.27,0,0,0,1.91,6.07c1.23,1.5,3.67,2.88,7.43,4.22a10.3,10.3,0,0,1,4,2.25,4,4,0,0,1,.92,2.8,3.73,3.73,0,0,1-1.18,2.85,4.32,4.32,0,0,1-3.1,1.15A4.09,4.09,0,0,1,724.2,439a6,6,0,0,1-1.39-4.19v-1.28H716l0,1.32a13,13,0,0,0,3.2,8.72,10.61,10.61,0,0,0,8.12,3.34,11.43,11.43,0,0,0,8.11-3,10.2,10.2,0,0,0,3.26-7.71A10.84,10.84,0,0,0,737.15,430.1Z" transform="translate(-239.9 -248.94)"/><polygon class="cls-2" points="258.45 136.07 287.61 136.07 287.61 86.48 330.19 86.48 330.19 57.05 287.61 57.05 287.61 29.79 330.19 29.79 330.19 0.45 258.45 0.45 258.45 136.07"/><path class="cls-2" d="M622.17,274.57a36.14,36.14,0,0,0-13.59,2.84V276H580.11V385h29.34v-62.8c0-6.4,1.08-11.33,3-13.53s5.54-3.48,10.83-3.95l11.33-.71-.2-29.68Z" transform="translate(-239.9 -248.94)"/><path class="cls-2" d="M869.63,274.05a51.32,51.32,0,0,0-23.06,5.17,46,46,0,0,0-10.46,7.15,44.72,44.72,0,0,0-10-6.85,51.47,51.47,0,0,0-23.61-5.47A50.48,50.48,0,0,0,782.4,278l-1,.46V276h-29V385h29V333.4c0-9.61.42-13.93.77-15.86a18.84,18.84,0,0,1,2.15-6.14,16.23,16.23,0,0,1,6.58-6.36,22.46,22.46,0,0,1,10.63-2.35c6.64,0,11.22,1.59,14,4.86,3,3.58,4.66,10.09,4.66,18.83V385h28.47V333.4c0-9.59.44-13.88.8-15.79a21,21,0,0,1,2.12-6.21,16.41,16.41,0,0,1,6.53-6.38,21.56,21.56,0,0,1,10.33-2.33c6.72,0,11.2,1.56,13.69,4.75,2,2.61,4.45,8.5,4.45,21.71V385H915.2V331.67c0-19.3-3.46-33.24-10.56-42.61C897.08,279.1,885.3,274.05,869.63,274.05Z" transform="translate(-239.9 -248.94)"/><path class="cls-2" d="M713.51,280.64A53.93,53.93,0,0,0,666,279.37l-1,.46v36.59l51-34.44Z" transform="translate(-239.9 -248.94)"/><path class="cls-2" d="M722.51,286.56l-1-.8-27,18.24,47.56,31.87.23-2.92c.14-1.63.2-3.09.2-4.46A53.84,53.84,0,0,0,722.51,286.56Z" transform="translate(-239.9 -248.94)"/><path class="cls-2" d="M658.85,283.2l-2.75,2.07a54,54,0,0,0-18.4,61.62l.41,1.14h20.74Z" transform="translate(-239.9 -248.94)"/><path class="cls-2" d="M642.52,356.84A54,54,0,0,0,710,378l1-.45V354.21h-70.1Z" transform="translate(-239.9 -248.94)"/><polygon class="cls-1" points="477.28 77.71 477.28 116.57 477.28 116.58 477.28 133.93 500.87 133.93 500.87 93.5 477.28 77.71"/><path class="cls-2" d="M997.15,354.31a26.11,26.11,0,0,1-4.57,3.77,26.56,26.56,0,0,1-14.72,4.2c-7.94,0-14.31-2.38-19.49-7.27a26.23,26.23,0,0,1-6.84-10.54h84.3V335.1c0-17.9-5.32-32.78-15.8-44.21-10.67-11.63-24.57-17.54-41.31-17.54s-31,5.63-42,16.73S920.16,315.26,920.16,332a57.71,57.71,0,0,0,16.77,41.52,55.54,55.54,0,0,0,41.28,17.4,54.94,54.94,0,0,0,32.51-10c8.87-6.3,15.87-15.24,20.83-26.58Zm-38.07-46h0c4.84-4.35,10.67-6.46,17.83-6.46,7.79,0,14.06,2,18.63,6a27.11,27.11,0,0,1,6.62,9.06H952.81A26.18,26.18,0,0,1,959.08,308.3Z" transform="translate(-239.9 -248.94)"/><path class="cls-1" d="M239.9,384.52V248.94h65.36v13H252.72V308.3h52.54v13.09H252.72v63.13Z" transform="translate(-239.9 -248.94)"/><path class="cls-1" d="M325.46,284.53H338.1v53.08q0,20.46,6.63,29t21.82,8.5a31.78,31.78,0,0,0,15.18-3.5,27.13,27.13,0,0,0,10.54-10.14,28.49,28.49,0,0,0,3.27-9.23q1-5.31,1-18.49V284.53h12.82v100H396.54V373.7a35.43,35.43,0,0,1-13,10.27q-7.19,3.18-17.36,3.18-21.65,0-31.19-11.67t-9.54-38.77Z" transform="translate(-239.9 -248.94)"/><path class="cls-1" d="M431,384.52V248.94h12.82V384.52Z" transform="translate(-239.9 -248.94)"/><path class="cls-1" d="M465.87,384.52V248.94h12.81V384.52Z" transform="translate(-239.9 -248.94)"/></svg>